<?xml version="1.0" encoding="utf-8"?>
<!-- Generator: Adobe Illustrator 22.1.0, SVG Export Plug-In . SVG Version: 6.00 Build 0)  -->
<svg version="1.1" id="Layer_1" xmlns="http://www.w3.org/2000/svg" xmlns:xlink="http://www.w3.org/1999/xlink" x="0px" y="0px"
	 viewBox="0 0 40 40" style="enable-background:new 0 0 40 40;" xml:space="preserve">
<style type="text/css">
	.st0{fill:#676766;}
</style>
<path class="st0" d="M37.5,5.7v3.6c0,3.1-7.8,5.7-17.5,5.7S2.5,12.4,2.5,9.3V5.7C2.5,2.6,10.4,0,20,0S37.5,2.6,37.5,5.7z M37.5,13.8
	v8c0,3.1-7.8,5.7-17.5,5.7S2.5,24.9,2.5,21.8v-8c3.7,2.6,10.6,3.8,17.5,3.8S33.7,16.3,37.5,13.8z M37.5,26.2v8
	c0,3.1-7.8,5.7-17.5,5.7S2.5,37.4,2.5,34.3v-8C6.3,28.8,13.2,30,20,30S33.7,28.8,37.5,26.2z"/>
</svg>
