<?xml version="1.0" encoding="utf-8"?>
<!-- Generator: Adobe Illustrator 22.1.0, SVG Export Plug-In . SVG Version: 6.00 Build 0)  -->
<svg version="1.1" id="Layer_1" xmlns="http://www.w3.org/2000/svg" xmlns:xlink="http://www.w3.org/1999/xlink" x="0px" y="0px"
	 viewBox="0 0 40 40" style="enable-background:new 0 0 40 40;" xml:space="preserve">
<style type="text/css">
	.st0{fill:#676766;}
</style>
<g>
	<path class="st0" d="M25.5,14.5c4.7,4.7,4.6,12.2,0,16.8c0,0,0,0,0,0l-5.3,5.2c-4.6,4.6-12.2,4.6-16.8,0c-4.6-4.6-4.6-12.2,0-16.8
		l2.9-2.9c0.8-0.8,2.1-0.3,2.1,0.8c0.1,1.4,0.3,2.8,0.8,4.1c0.2,0.5,0,1-0.3,1.3l-1,1c-2.2,2.2-2.3,5.8-0.1,8c2.2,2.2,5.8,2.2,8,0
		l5.3-5.2c2.2-2.2,2.2-5.8,0-8c-0.3-0.3-0.6-0.5-0.8-0.7c-0.3-0.2-0.5-0.6-0.5-1c0-0.8,0.3-1.7,0.9-2.3l1.6-1.6
		c0.4-0.4,1.1-0.5,1.6-0.1C24.5,13.6,25,14.1,25.5,14.5L25.5,14.5z M36.5,3.5c-4.6-4.6-12.2-4.6-16.8,0l-5.3,5.2c0,0,0,0,0,0
		c-4.6,4.6-4.6,12.1,0,16.8c0.5,0.5,1,0.9,1.6,1.3c0.5,0.3,1.2,0.3,1.6-0.1l1.6-1.6c0.7-0.7,0.9-1.5,0.9-2.3c0-0.4-0.2-0.8-0.5-1
		c-0.2-0.2-0.5-0.4-0.8-0.7c-2.2-2.2-2.2-5.8,0-8L24.2,8c2.2-2.2,5.8-2.2,8,0c2.2,2.2,2.1,5.8-0.1,8l-1,1c-0.3,0.3-0.5,0.8-0.3,1.3
		c0.5,1.3,0.7,2.7,0.8,4.1c0,1.1,1.4,1.6,2.1,0.8l2.9-2.9C41.2,15.7,41.2,8.2,36.5,3.5L36.5,3.5z"/>
</g>
</svg>
