<?xml version="1.0" encoding="utf-8"?>
<!-- Generator: Adobe Illustrator 22.1.0, SVG Export Plug-In . SVG Version: 6.00 Build 0)  -->
<svg version="1.1" id="Layer_1" xmlns="http://www.w3.org/2000/svg" xmlns:xlink="http://www.w3.org/1999/xlink" x="0px" y="0px"
	 viewBox="0 0 40 40" style="enable-background:new 0 0 40 40;" xml:space="preserve">
<style type="text/css">
	.st0{fill:#676766;}
</style>
<path class="st0" d="M20,11.9c-0.7,0-1.5,0.1-2.2,0.3c0.3,0.6,0.5,1.2,0.5,1.9c0,2.1-1.7,3.9-3.9,3.9c-0.7,0-1.3-0.2-1.9-0.5
	c-1.2,4.1,1.2,8.4,5.3,9.6s8.4-1.2,9.6-5.3c1.2-4.1-1.2-8.4-5.3-9.6C21.5,12,20.7,11.9,20,11.9z M39.8,18.7C36,11.3,28.5,6.3,20,6.3
	s-16,5-19.8,12.3c-0.3,0.6-0.3,1.4,0,2C4,28,11.5,33,20,33s16-5,19.8-12.3C40.1,20,40.1,19.3,39.8,18.7z M20,29.7
	c-6.9,0-13.1-3.8-16.5-10c3.4-6.2,9.7-10,16.5-10s13.1,3.8,16.5,10C33.1,25.8,26.9,29.7,20,29.7z"/>
</svg>
